<svg viewBox="98.885 173.14 173.833 14.625" width="173.833" height="14.625">
  <path d="M 99.47 173.92 Q 99.607 173.92 99.753 173.979 Q 99.899 174.037 99.997 174.174 L 105.379 182.247 L 104.852 182.227 L 110.254 174.174 Q 110.468 173.881 110.78 173.92 Q 111.014 173.92 111.18 174.086 Q 111.346 174.252 111.346 174.505 L 111.346 186.985 Q 111.346 187.219 111.17 187.395 Q 110.995 187.57 110.741 187.57 Q 110.468 187.57 110.293 187.395 Q 110.117 187.219 110.117 186.985 L 110.117 175.695 L 110.468 175.734 L 105.535 183.202 Q 105.476 183.319 105.359 183.387 Q 105.242 183.456 105.086 183.436 Q 104.95 183.456 104.823 183.387 Q 104.696 183.319 104.618 183.202 L 99.665 175.656 L 100.036 175.402 L 100.036 186.985 Q 100.036 187.219 99.87 187.395 Q 99.704 187.57 99.451 187.57 Q 99.197 187.57 99.041 187.395 Q 98.885 187.219 98.885 186.985 L 98.885 174.505 Q 98.885 174.271 99.051 174.096 Q 99.217 173.92 99.47 173.92 Z M 122.162 177.664 Q 122.415 177.664 122.581 177.84 Q 122.747 178.015 122.747 178.249 L 122.747 183.748 Q 122.747 185.679 121.655 186.693 Q 120.563 187.707 118.71 187.707 Q 116.877 187.707 115.795 186.693 Q 114.713 185.679 114.713 183.748 L 114.713 178.249 Q 114.713 178.015 114.879 177.84 Q 115.044 177.664 115.298 177.664 Q 115.551 177.664 115.717 177.84 Q 115.883 178.015 115.883 178.249 L 115.883 183.748 Q 115.883 185.152 116.634 185.883 Q 117.384 186.615 118.71 186.615 Q 120.056 186.615 120.816 185.883 Q 121.577 185.152 121.577 183.748 L 121.577 178.249 Q 121.577 178.015 121.733 177.84 Q 121.889 177.664 122.162 177.664 Z M 130.354 177.528 Q 131.582 177.528 132.343 178.054 Q 133.103 178.581 133.464 179.478 Q 133.825 180.375 133.825 181.467 L 133.825 186.985 Q 133.825 187.219 133.649 187.395 Q 133.474 187.57 133.24 187.57 Q 132.967 187.57 132.811 187.395 Q 132.655 187.219 132.655 186.985 L 132.655 181.467 Q 132.655 180.667 132.411 180.024 Q 132.167 179.38 131.621 179 Q 131.075 178.62 130.159 178.62 Q 129.34 178.62 128.608 179 Q 127.877 179.38 127.429 180.024 Q 126.98 180.667 126.98 181.467 L 126.98 186.985 Q 126.98 187.219 126.805 187.395 Q 126.629 187.57 126.395 187.57 Q 126.122 187.57 125.966 187.395 Q 125.81 187.219 125.81 186.985 L 125.81 173.725 Q 125.81 173.491 125.976 173.316 Q 126.142 173.14 126.395 173.14 Q 126.649 173.14 126.814 173.316 Q 126.98 173.491 126.98 173.725 L 126.98 180.043 L 126.532 180.726 Q 126.571 180.121 126.912 179.546 Q 127.253 178.971 127.799 178.512 Q 128.345 178.054 129.008 177.791 Q 129.671 177.528 130.354 177.528 Z M 145.052 177.606 Q 145.306 177.606 145.471 177.781 Q 145.637 177.957 145.637 178.21 L 145.637 186.985 Q 145.637 187.219 145.462 187.395 Q 145.286 187.57 145.052 187.57 Q 144.799 187.57 144.633 187.395 Q 144.467 187.219 144.467 186.985 L 144.467 184.665 L 144.799 184.509 Q 144.799 185.055 144.496 185.62 Q 144.194 186.186 143.668 186.673 Q 143.141 187.161 142.429 187.463 Q 141.718 187.765 140.899 187.765 Q 139.573 187.765 138.529 187.083 Q 137.486 186.4 136.891 185.211 Q 136.297 184.021 136.297 182.539 Q 136.297 181.018 136.901 179.858 Q 137.506 178.698 138.539 178.035 Q 139.573 177.372 140.879 177.372 Q 141.718 177.372 142.449 177.664 Q 143.18 177.957 143.726 178.464 Q 144.272 178.971 144.574 179.624 Q 144.877 180.277 144.877 180.979 L 144.467 180.687 L 144.467 178.21 Q 144.467 177.957 144.633 177.781 Q 144.799 177.606 145.052 177.606 Z M 140.996 186.673 Q 142.03 186.673 142.829 186.137 Q 143.629 185.601 144.087 184.655 Q 144.545 183.709 144.545 182.539 Q 144.545 181.389 144.087 180.472 Q 143.629 179.556 142.829 179.01 Q 142.03 178.464 140.996 178.464 Q 139.982 178.464 139.173 178.99 Q 138.364 179.517 137.905 180.433 Q 137.447 181.35 137.447 182.539 Q 137.447 183.709 137.905 184.655 Q 138.364 185.601 139.163 186.137 Q 139.963 186.673 140.996 186.673 Z M 153.185 177.528 Q 154.394 177.528 155.252 178.161 Q 156.11 178.795 156.422 180.043 L 156.149 180.121 L 156.266 179.77 Q 156.52 179.185 157.115 178.668 Q 157.709 178.152 158.47 177.84 Q 159.23 177.528 160.01 177.528 Q 161.239 177.528 161.99 178.054 Q 162.74 178.581 163.082 179.468 Q 163.423 180.355 163.423 181.467 L 163.423 186.985 Q 163.423 187.219 163.257 187.395 Q 163.091 187.57 162.838 187.57 Q 162.584 187.57 162.419 187.395 Q 162.253 187.219 162.253 186.985 L 162.253 181.525 Q 162.253 180.726 161.999 180.063 Q 161.746 179.4 161.2 179.01 Q 160.654 178.62 159.737 178.62 Q 158.938 178.62 158.207 179.01 Q 157.475 179.4 157.017 180.063 Q 156.559 180.726 156.559 181.525 L 156.559 186.985 Q 156.559 187.219 156.393 187.395 Q 156.227 187.57 155.974 187.57 Q 155.72 187.57 155.555 187.395 Q 155.389 187.219 155.389 186.985 L 155.389 181.467 Q 155.389 180.667 155.155 180.024 Q 154.921 179.38 154.394 179 Q 153.868 178.62 152.971 178.62 Q 152.171 178.62 151.46 179 Q 150.748 179.38 150.309 180.024 Q 149.87 180.667 149.87 181.467 L 149.87 186.985 Q 149.87 187.219 149.695 187.395 Q 149.519 187.57 149.285 187.57 Q 149.012 187.57 148.856 187.395 Q 148.7 187.219 148.7 186.985 L 148.7 178.249 Q 148.7 178.015 148.866 177.84 Q 149.032 177.664 149.285 177.664 Q 149.539 177.664 149.705 177.84 Q 149.87 178.015 149.87 178.249 L 149.87 180.063 L 149.344 180.784 Q 149.402 180.199 149.724 179.614 Q 150.046 179.029 150.572 178.561 Q 151.099 178.093 151.772 177.81 Q 152.444 177.528 153.185 177.528 Z M 170.974 177.528 Q 172.183 177.528 173.041 178.161 Q 173.899 178.795 174.211 180.043 L 173.938 180.121 L 174.055 179.77 Q 174.309 179.185 174.903 178.668 Q 175.498 178.152 176.259 177.84 Q 177.019 177.528 177.799 177.528 Q 179.028 177.528 179.778 178.054 Q 180.529 178.581 180.87 179.468 Q 181.212 180.355 181.212 181.467 L 181.212 186.985 Q 181.212 187.219 181.046 187.395 Q 180.88 187.57 180.627 187.57 Q 180.373 187.57 180.207 187.395 Q 180.042 187.219 180.042 186.985 L 180.042 181.525 Q 180.042 180.726 179.788 180.063 Q 179.535 179.4 178.989 179.01 Q 178.443 178.62 177.526 178.62 Q 176.727 178.62 175.995 179.01 Q 175.264 179.4 174.806 180.063 Q 174.348 180.726 174.348 181.525 L 174.348 186.985 Q 174.348 187.219 174.182 187.395 Q 174.016 187.57 173.763 187.57 Q 173.509 187.57 173.343 187.395 Q 173.178 187.219 173.178 186.985 L 173.178 181.467 Q 173.178 180.667 172.944 180.024 Q 172.71 179.38 172.183 179 Q 171.657 178.62 170.76 178.62 Q 169.96 178.62 169.248 179 Q 168.537 179.38 168.098 180.024 Q 167.659 180.667 167.659 181.467 L 167.659 186.985 Q 167.659 187.219 167.484 187.395 Q 167.308 187.57 167.074 187.57 Q 166.801 187.57 166.645 187.395 Q 166.489 187.219 166.489 186.985 L 166.489 178.249 Q 166.489 178.015 166.655 177.84 Q 166.821 177.664 167.074 177.664 Q 167.328 177.664 167.493 177.84 Q 167.659 178.015 167.659 178.249 L 167.659 180.063 L 167.133 180.784 Q 167.191 180.199 167.513 179.614 Q 167.835 179.029 168.361 178.561 Q 168.888 178.093 169.56 177.81 Q 170.233 177.528 170.974 177.528 Z M 192.44 177.606 Q 192.693 177.606 192.859 177.781 Q 193.025 177.957 193.025 178.21 L 193.025 186.985 Q 193.025 187.219 192.849 187.395 Q 192.674 187.57 192.44 187.57 Q 192.186 187.57 192.021 187.395 Q 191.855 187.219 191.855 186.985 L 191.855 184.665 L 192.186 184.509 Q 192.186 185.055 191.884 185.62 Q 191.582 186.186 191.055 186.673 Q 190.529 187.161 189.817 187.463 Q 189.105 187.765 188.286 187.765 Q 186.96 187.765 185.917 187.083 Q 184.874 186.4 184.279 185.211 Q 183.684 184.021 183.684 182.539 Q 183.684 181.018 184.289 179.858 Q 184.893 178.698 185.927 178.035 Q 186.96 177.372 188.267 177.372 Q 189.105 177.372 189.837 177.664 Q 190.568 177.957 191.114 178.464 Q 191.66 178.971 191.962 179.624 Q 192.264 180.277 192.264 180.979 L 191.855 180.687 L 191.855 178.21 Q 191.855 177.957 192.021 177.781 Q 192.186 177.606 192.44 177.606 Z M 188.384 186.673 Q 189.417 186.673 190.217 186.137 Q 191.016 185.601 191.475 184.655 Q 191.933 183.709 191.933 182.539 Q 191.933 181.389 191.475 180.472 Q 191.016 179.556 190.217 179.01 Q 189.417 178.464 188.384 178.464 Q 187.37 178.464 186.561 178.99 Q 185.751 179.517 185.293 180.433 Q 184.835 181.35 184.835 182.539 Q 184.835 183.709 185.293 184.655 Q 185.751 185.601 186.551 186.137 Q 187.35 186.673 188.384 186.673 Z M 204.258 173.14 Q 204.512 173.14 204.678 173.306 Q 204.843 173.472 204.843 173.725 L 204.843 186.985 Q 204.843 187.219 204.668 187.395 Q 204.492 187.57 204.258 187.57 Q 204.005 187.57 203.839 187.395 Q 203.673 187.219 203.673 186.985 L 203.673 184.665 L 204.005 184.392 Q 204.005 184.938 203.712 185.532 Q 203.42 186.127 202.884 186.634 Q 202.347 187.141 201.636 187.453 Q 200.924 187.765 200.105 187.765 Q 198.798 187.765 197.755 187.083 Q 196.712 186.4 196.107 185.23 Q 195.503 184.06 195.503 182.559 Q 195.503 181.077 196.107 179.897 Q 196.712 178.717 197.745 178.044 Q 198.779 177.372 200.085 177.372 Q 200.885 177.372 201.606 177.664 Q 202.328 177.957 202.884 178.464 Q 203.439 178.971 203.761 179.624 Q 204.083 180.277 204.083 180.979 L 203.673 180.687 L 203.673 173.725 Q 203.673 173.491 203.839 173.316 Q 204.005 173.14 204.258 173.14 Z M 200.202 186.673 Q 201.255 186.673 202.045 186.137 Q 202.835 185.601 203.293 184.674 Q 203.751 183.748 203.751 182.559 Q 203.751 181.389 203.293 180.462 Q 202.835 179.536 202.035 179 Q 201.236 178.464 200.202 178.464 Q 199.188 178.464 198.379 179 Q 197.57 179.536 197.112 180.462 Q 196.653 181.389 196.653 182.559 Q 196.653 183.729 197.112 184.665 Q 197.57 185.601 198.379 186.137 Q 199.188 186.673 200.202 186.673 Z M 216.755 187.765 Q 215.526 187.765 214.551 187.083 Q 213.576 186.4 213.069 185.289 Q 212.972 185.113 212.972 184.977 Q 212.972 184.723 213.167 184.577 Q 213.362 184.431 213.557 184.431 Q 213.752 184.431 213.878 184.528 Q 214.005 184.626 214.103 184.762 Q 214.473 185.581 215.175 186.088 Q 215.877 186.595 216.755 186.595 Q 217.652 186.595 218.334 186.215 Q 219.017 185.835 219.397 185.152 Q 219.777 184.47 219.777 183.592 L 219.777 174.505 Q 219.777 174.271 219.962 174.096 Q 220.148 173.92 220.401 173.92 Q 220.674 173.92 220.84 174.096 Q 221.006 174.271 221.006 174.505 L 221.006 183.592 Q 221.006 184.801 220.46 185.747 Q 219.914 186.693 218.958 187.229 Q 218.003 187.765 216.755 187.765 Z M 232.554 177.606 Q 232.807 177.606 232.973 177.781 Q 233.139 177.957 233.139 178.21 L 233.139 186.985 Q 233.139 187.219 232.963 187.395 Q 232.788 187.57 232.554 187.57 Q 232.3 187.57 232.135 187.395 Q 231.969 187.219 231.969 186.985 L 231.969 184.665 L 232.3 184.509 Q 232.3 185.055 231.998 185.62 Q 231.696 186.186 231.169 186.673 Q 230.643 187.161 229.931 187.463 Q 229.219 187.765 228.4 187.765 Q 227.074 187.765 226.031 187.083 Q 224.988 186.4 224.393 185.211 Q 223.798 184.021 223.798 182.539 Q 223.798 181.018 224.403 179.858 Q 225.007 178.698 226.041 178.035 Q 227.074 177.372 228.381 177.372 Q 229.219 177.372 229.951 177.664 Q 230.682 177.957 231.228 178.464 Q 231.774 178.971 232.076 179.624 Q 232.378 180.277 232.378 180.979 L 231.969 180.687 L 231.969 178.21 Q 231.969 177.957 232.135 177.781 Q 232.3 177.606 232.554 177.606 Z M 228.498 186.673 Q 229.531 186.673 230.331 186.137 Q 231.13 185.601 231.589 184.655 Q 232.047 183.709 232.047 182.539 Q 232.047 181.389 231.589 180.472 Q 231.13 179.556 230.331 179.01 Q 229.531 178.464 228.498 178.464 Q 227.484 178.464 226.675 178.99 Q 225.865 179.517 225.407 180.433 Q 224.949 181.35 224.949 182.539 Q 224.949 183.709 225.407 184.655 Q 225.865 185.601 226.665 186.137 Q 227.464 186.673 228.498 186.673 Z M 244.564 177.606 Q 244.817 177.606 244.983 177.781 Q 245.149 177.957 245.149 178.21 L 245.149 186.985 Q 245.149 187.219 244.973 187.395 Q 244.798 187.57 244.564 187.57 Q 244.31 187.57 244.144 187.395 Q 243.979 187.219 243.979 186.985 L 243.979 184.665 L 244.31 184.509 Q 244.31 185.055 244.008 185.62 Q 243.706 186.186 243.179 186.673 Q 242.653 187.161 241.941 187.463 Q 241.229 187.765 240.41 187.765 Q 239.084 187.765 238.041 187.083 Q 236.998 186.4 236.403 185.211 Q 235.808 184.021 235.808 182.539 Q 235.808 181.018 236.413 179.858 Q 237.017 178.698 238.051 178.035 Q 239.084 177.372 240.391 177.372 Q 241.229 177.372 241.96 177.664 Q 242.692 177.957 243.238 178.464 Q 243.784 178.971 244.086 179.624 Q 244.388 180.277 244.388 180.979 L 243.979 180.687 L 243.979 178.21 Q 243.979 177.957 244.144 177.781 Q 244.31 177.606 244.564 177.606 Z M 240.508 186.673 Q 241.541 186.673 242.341 186.137 Q 243.14 185.601 243.598 184.655 Q 244.057 183.709 244.057 182.539 Q 244.057 181.389 243.598 180.472 Q 243.14 179.556 242.341 179.01 Q 241.541 178.464 240.508 178.464 Q 239.494 178.464 238.684 178.99 Q 237.875 179.517 237.417 180.433 Q 236.959 181.35 236.959 182.539 Q 236.959 183.709 237.417 184.655 Q 237.875 185.601 238.675 186.137 Q 239.474 186.673 240.508 186.673 Z M 251.811 173.218 Q 252.103 173.218 252.444 173.277 Q 252.786 173.335 253.039 173.481 Q 253.293 173.628 253.293 173.92 Q 253.293 174.135 253.137 174.3 Q 252.981 174.466 252.786 174.466 Q 252.591 174.466 252.298 174.359 Q 252.006 174.252 251.674 174.252 Q 251.265 174.252 250.972 174.437 Q 250.68 174.622 250.524 174.963 Q 250.368 175.305 250.368 175.792 L 250.368 186.985 Q 250.368 187.219 250.202 187.395 Q 250.036 187.57 249.783 187.57 Q 249.529 187.57 249.363 187.395 Q 249.198 187.219 249.198 186.985 L 249.198 175.792 Q 249.198 174.544 249.929 173.881 Q 250.66 173.218 251.811 173.218 Z M 252.552 177.801 Q 252.786 177.801 252.942 177.957 Q 253.098 178.113 253.098 178.347 Q 253.098 178.581 252.942 178.737 Q 252.786 178.893 252.552 178.893 L 247.774 178.893 Q 247.56 178.893 247.394 178.727 Q 247.228 178.561 247.228 178.347 Q 247.228 178.093 247.394 177.947 Q 247.56 177.801 247.774 177.801 Z M 263.395 177.606 Q 263.649 177.606 263.815 177.781 Q 263.98 177.957 263.98 178.21 L 263.98 186.985 Q 263.98 187.219 263.805 187.395 Q 263.629 187.57 263.395 187.57 Q 263.142 187.57 262.976 187.395 Q 262.81 187.219 262.81 186.985 L 262.81 184.665 L 263.142 184.509 Q 263.142 185.055 262.84 185.62 Q 262.537 186.186 262.011 186.673 Q 261.484 187.161 260.773 187.463 Q 260.061 187.765 259.242 187.765 Q 257.916 187.765 256.873 187.083 Q 255.829 186.4 255.235 185.211 Q 254.64 184.021 254.64 182.539 Q 254.64 181.018 255.244 179.858 Q 255.849 178.698 256.882 178.035 Q 257.916 177.372 259.222 177.372 Q 260.061 177.372 260.792 177.664 Q 261.523 177.957 262.069 178.464 Q 262.615 178.971 262.918 179.624 Q 263.22 180.277 263.22 180.979 L 262.81 180.687 L 262.81 178.21 Q 262.81 177.957 262.976 177.781 Q 263.142 177.606 263.395 177.606 Z M 259.339 186.673 Q 260.373 186.673 261.172 186.137 Q 261.972 185.601 262.43 184.655 Q 262.888 183.709 262.888 182.539 Q 262.888 181.389 262.43 180.472 Q 261.972 179.556 261.172 179.01 Q 260.373 178.464 259.339 178.464 Q 258.325 178.464 257.516 178.99 Q 256.707 179.517 256.249 180.433 Q 255.79 181.35 255.79 182.539 Q 255.79 183.709 256.249 184.655 Q 256.707 185.601 257.506 186.137 Q 258.306 186.673 259.339 186.673 Z M 267.629 187.57 Q 267.356 187.57 267.2 187.395 Q 267.044 187.219 267.044 186.985 L 267.044 178.249 Q 267.044 178.015 267.209 177.84 Q 267.375 177.664 267.629 177.664 Q 267.882 177.664 268.048 177.84 Q 268.214 178.015 268.214 178.249 L 268.214 181.174 L 267.921 181.233 Q 267.98 180.55 268.262 179.877 Q 268.545 179.205 269.033 178.639 Q 269.52 178.074 270.193 177.723 Q 270.866 177.372 271.704 177.372 Q 272.055 177.372 272.387 177.518 Q 272.718 177.664 272.718 177.996 Q 272.718 178.288 272.562 178.444 Q 272.406 178.6 272.192 178.6 Q 272.016 178.6 271.811 178.503 Q 271.607 178.405 271.275 178.405 Q 270.729 178.405 270.183 178.727 Q 269.637 179.049 269.189 179.595 Q 268.74 180.141 268.477 180.813 Q 268.214 181.486 268.214 182.169 L 268.214 186.985 Q 268.214 187.219 268.038 187.395 Q 267.863 187.57 267.629 187.57 Z" ></path>
</svg>