<?xml version="1.0" encoding="UTF-8" standalone="no"?>
<!-- Created with Inkscape (http://www.inkscape.org/) -->

<svg
   width="114.45476mm"
   height="9.9329987mm"
   viewBox="0 0 114.45476 9.9329987"
   version="1.1"
   id="svg5"
   xmlns:inkscape="http://www.inkscape.org/namespaces/inkscape"
   xmlns:sodipodi="http://sodipodi.sourceforge.net/DTD/sodipodi-0.dtd"
   xmlns="http://www.w3.org/2000/svg"
   xmlns:svg="http://www.w3.org/2000/svg">
  <sodipodi:namedview
     id="namedview7"
     pagecolor="#ffffff"
     bordercolor="#999999"
     borderopacity="1"
     inkscape:showpageshadow="0"
     inkscape:pageopacity="0"
     inkscape:pagecheckerboard="0"
     inkscape:deskcolor="#d1d1d1"
     inkscape:document-units="mm"
     showgrid="false" />
  <defs
     id="defs2" />
  <g
     inkscape:label="Layer 1"
     inkscape:groupmode="layer"
     id="layer1"
     transform="translate(-59.151937,-130.08445)">
    <g
       aria-label="MuhammadJaafar"
       id="text113"
       style="font-size:13.244px;font-family:'Quicksand Light';-inkscape-font-specification:'Quicksand Light, @wght=400';font-variation-settings:'wght' 400;stroke-width:0.315068">
      <path
         d="m 59.549258,130.61421 q 0.09271,0 0.185416,0.0397 0.105952,0.0397 0.172172,0.13244 l 3.655344,5.48302 -0.357588,-0.0132 3.668588,-5.46977 q 0.145684,-0.19866 0.357588,-0.17217 0.158928,0 0.26488,0.1192 0.119196,0.10595 0.119196,0.27812 v 8.47616 q 0,0.15893 -0.119196,0.27812 -0.119196,0.1192 -0.291368,0.1192 -0.185416,0 -0.304612,-0.1192 -0.119196,-0.11919 -0.119196,-0.27812 v -7.66828 l 0.238392,0.0265 -3.350732,5.07245 q -0.03973,0.0795 -0.119196,0.13244 -0.07946,0.0397 -0.185416,0.0265 -0.09271,0.0132 -0.185416,-0.0265 -0.07946,-0.053 -0.13244,-0.13244 l -3.363976,-5.12542 0.251636,-0.17218 v 7.86694 q 0,0.15893 -0.119196,0.27812 -0.105952,0.1192 -0.278124,0.1192 -0.172172,0 -0.278124,-0.1192 -0.105952,-0.11919 -0.105952,-0.27812 v -8.47616 q 0,-0.15893 0.105952,-0.27812 0.119196,-0.1192 0.291368,-0.1192 z"
         id="path273" />
      <path
         d="m 74.965269,133.15706 q 0.172172,0 0.278124,0.11919 0.119196,0.1192 0.119196,0.27813 v 3.73481 q 0,1.31115 -0.741664,1.99984 -0.741664,0.68869 -1.999844,0.68869 -1.244936,0 -1.9866,-0.68869 -0.72842,-0.68869 -0.72842,-1.99984 v -3.73481 q 0,-0.15893 0.105952,-0.27813 0.119196,-0.11919 0.291368,-0.11919 0.172172,0 0.278124,0.11919 0.119196,0.1192 0.119196,0.27813 v 3.73481 q 0,0.95356 0.503272,1.45684 0.516516,0.49002 1.417108,0.49002 0.913836,0 1.430352,-0.49002 0.516516,-0.50328 0.516516,-1.45684 v -3.73481 q 0,-0.15893 0.105952,-0.27813 0.105952,-0.11919 0.291368,-0.11919 z"
         id="path275" />
      <path
         d="m 80.527752,133.06435 q 0.834372,0 1.350888,0.35759 0.516516,0.35759 0.754908,0.96681 0.251636,0.60922 0.251636,1.35089 v 3.74805 q 0,0.15893 -0.119196,0.27812 -0.119196,0.1192 -0.278124,0.1192 -0.185416,0 -0.291368,-0.1192 -0.105952,-0.11919 -0.105952,-0.27812 v -3.74805 q 0,-0.54301 -0.172172,-0.98006 -0.158928,-0.43705 -0.52976,-0.68869 -0.370832,-0.26488 -0.9933,-0.26488 -0.556248,0 -1.05952,0.26488 -0.490028,0.25164 -0.79464,0.68869 -0.304612,0.43705 -0.304612,0.98006 v 3.74805 q 0,0.15893 -0.119196,0.27812 -0.119196,0.1192 -0.278124,0.1192 -0.185416,0 -0.291368,-0.1192 -0.105952,-0.11919 -0.105952,-0.27812 v -9.00592 q 0,-0.15893 0.105952,-0.27812 0.119196,-0.1192 0.291368,-0.1192 0.172172,0 0.278124,0.1192 0.119196,0.11919 0.119196,0.27812 v 4.29106 l -0.304612,0.46354 q 0.02649,-0.41057 0.251636,-0.79464 0.238392,-0.39732 0.609224,-0.70194 0.370832,-0.31785 0.821128,-0.49002 0.450296,-0.18542 0.913836,-0.18542 z"
         id="path277" />
      <path
         d="m 90.51374,133.11733 q 0.172172,0 0.278124,0.11919 0.119196,0.1192 0.119196,0.29137 v 5.9598 q 0,0.15893 -0.119196,0.27812 -0.119196,0.1192 -0.278124,0.1192 -0.172172,0 -0.291368,-0.1192 -0.105952,-0.11919 -0.105952,-0.27812 v -1.57604 l 0.225148,-0.10595 q 0,0.37083 -0.211904,0.75491 -0.19866,0.38408 -0.556248,0.71518 -0.357588,0.3311 -0.847616,0.543 -0.476784,0.19866 -1.033032,0.19866 -0.900592,0 -1.615768,-0.46354 -0.701932,-0.46354 -1.112496,-1.27142 -0.39732,-0.80789 -0.39732,-1.81443 0,-1.03303 0.410564,-1.81443 0.410564,-0.79464 1.112496,-1.24494 0.701932,-0.45029 1.58928,-0.45029 0.569492,0 1.05952,0.19866 0.503272,0.19866 0.874104,0.543 0.370832,0.34435 0.569492,0.79464 0.211904,0.43705 0.211904,0.91384 l -0.278124,-0.19866 v -1.68199 q 0,-0.17217 0.105952,-0.29137 0.119196,-0.11919 0.291368,-0.11919 z m -2.754752,6.15846 q 0.701932,0 1.244936,-0.35759 0.543004,-0.37083 0.847616,-1.00655 0.317856,-0.64895 0.317856,-1.44359 0,-0.7814 -0.317856,-1.40387 -0.304612,-0.62246 -0.847616,-0.9933 -0.543004,-0.37083 -1.244936,-0.37083 -0.688688,0 -1.244936,0.35759 -0.543004,0.35759 -0.86086,0.98006 -0.304612,0.62246 -0.304612,1.43035 0,0.79464 0.304612,1.44359 0.317856,0.63572 0.86086,1.00655 0.543004,0.35759 1.244936,0.35759 z"
         id="path279" />
      <path
         d="m 96.036499,133.06435 q 0.821128,0 1.403864,0.43705 0.582736,0.42381 0.79464,1.27143 l -0.185416,0.053 0.07946,-0.23839 q 0.172172,-0.39732 0.569492,-0.74166 0.410564,-0.35759 0.92708,-0.5695 0.516521,-0.2119 1.046281,-0.2119 0.83437,0 1.33764,0.35759 0.51652,0.35759 0.74167,0.96681 0.23839,0.59598 0.23839,1.35089 v 3.74805 q 0,0.15893 -0.1192,0.27812 -0.10595,0.1192 -0.27812,0.1192 -0.17217,0 -0.29137,-0.1192 -0.10595,-0.11919 -0.10595,-0.27812 v -3.70832 q 0,-0.543 -0.17217,-0.9933 -0.17217,-0.4503 -0.54301,-0.71518 -0.37083,-0.26488 -0.9933,-0.26488 -0.543004,0 -1.046277,0.26488 -0.490028,0.26488 -0.807884,0.71518 -0.304612,0.4503 -0.304612,0.9933 v 3.70832 q 0,0.15893 -0.119196,0.27812 -0.105952,0.1192 -0.278124,0.1192 -0.172172,0 -0.291368,-0.1192 -0.105952,-0.11919 -0.105952,-0.27812 v -3.74805 q 0,-0.54301 -0.158928,-0.98006 -0.158928,-0.43705 -0.516516,-0.68869 -0.357588,-0.26488 -0.966812,-0.26488 -0.543004,0 -1.033032,0.26488 -0.476784,0.25164 -0.781396,0.68869 -0.291368,0.43705 -0.291368,0.98006 v 3.74805 q 0,0.15893 -0.119196,0.27812 -0.119196,0.1192 -0.278124,0.1192 -0.185416,0 -0.291368,-0.1192 -0.105952,-0.11919 -0.105952,-0.27812 v -5.93331 q 0,-0.15893 0.105952,-0.27813 0.119196,-0.11919 0.291368,-0.11919 0.172172,0 0.278124,0.11919 0.119196,0.1192 0.119196,0.27813 v 1.23169 l -0.357588,0.49003 q 0.03973,-0.39732 0.251636,-0.79464 0.225148,-0.39732 0.582736,-0.71518 0.357588,-0.31785 0.807884,-0.50327 0.46354,-0.19866 0.966812,-0.19866 z"
         id="path281" />
      <path
         d="m 108.11504,133.06435 q 0.82112,0 1.40386,0.43705 0.58274,0.42381 0.79464,1.27143 l -0.18542,0.053 0.0795,-0.23839 q 0.17217,-0.39732 0.56949,-0.74166 0.41056,-0.35759 0.92708,-0.5695 0.51652,-0.2119 1.04628,-0.2119 0.83437,0 1.33764,0.35759 0.51652,0.35759 0.74166,0.96681 0.2384,0.59598 0.2384,1.35089 v 3.74805 q 0,0.15893 -0.1192,0.27812 -0.10595,0.1192 -0.27812,0.1192 -0.17218,0 -0.29137,-0.1192 -0.10595,-0.11919 -0.10595,-0.27812 v -3.70832 q 0,-0.543 -0.17218,-0.9933 -0.17217,-0.4503 -0.543,-0.71518 -0.37083,-0.26488 -0.9933,-0.26488 -0.543,0 -1.04628,0.26488 -0.49002,0.26488 -0.80788,0.71518 -0.30461,0.4503 -0.30461,0.9933 v 3.70832 q 0,0.15893 -0.1192,0.27812 -0.10595,0.1192 -0.27812,0.1192 -0.17217,0 -0.29137,-0.1192 -0.10595,-0.11919 -0.10595,-0.27812 v -3.74805 q 0,-0.54301 -0.15893,-0.98006 -0.15893,-0.43705 -0.51652,-0.68869 -0.35758,-0.26488 -0.96681,-0.26488 -0.543,0 -1.03303,0.26488 -0.47678,0.25164 -0.7814,0.68869 -0.29136,0.43705 -0.29136,0.98006 v 3.74805 q 0,0.15893 -0.1192,0.27812 -0.1192,0.1192 -0.27812,0.1192 -0.18542,0 -0.29137,-0.1192 -0.10595,-0.11919 -0.10595,-0.27812 v -5.93331 q 0,-0.15893 0.10595,-0.27813 0.11919,-0.11919 0.29137,-0.11919 0.17217,0 0.27812,0.11919 0.1192,0.1192 0.1192,0.27813 v 1.23169 l -0.35759,0.49003 q 0.0397,-0.39732 0.25163,-0.79464 0.22515,-0.39732 0.58274,-0.71518 0.35759,-0.31785 0.80788,-0.50327 0.46354,-0.19866 0.96682,-0.19866 z"
         id="path283" />
      <path
         d="m 122.69669,133.11733 q 0.17217,0 0.27812,0.11919 0.1192,0.1192 0.1192,0.29137 v 5.9598 q 0,0.15893 -0.1192,0.27812 -0.11919,0.1192 -0.27812,0.1192 -0.17217,0 -0.29137,-0.1192 -0.10595,-0.11919 -0.10595,-0.27812 v -1.57604 l 0.22515,-0.10595 q 0,0.37083 -0.21191,0.75491 -0.19866,0.38408 -0.55624,0.71518 -0.35759,0.3311 -0.84762,0.543 -0.47678,0.19866 -1.03303,0.19866 -0.90059,0 -1.61577,-0.46354 -0.70193,-0.46354 -1.1125,-1.27142 -0.39732,-0.80789 -0.39732,-1.81443 0,-1.03303 0.41057,-1.81443 0.41056,-0.79464 1.11249,-1.24494 0.70194,-0.45029 1.58928,-0.45029 0.5695,0 1.05952,0.19866 0.50328,0.19866 0.87411,0.543 0.37083,0.34435 0.56949,0.79464 0.2119,0.43705 0.2119,0.91384 l -0.27812,-0.19866 v -1.68199 q 0,-0.17217 0.10595,-0.29137 0.1192,-0.11919 0.29137,-0.11919 z m -2.75475,6.15846 q 0.70193,0 1.24493,-0.35759 0.54301,-0.37083 0.84762,-1.00655 0.31786,-0.64895 0.31786,-1.44359 0,-0.7814 -0.31786,-1.40387 -0.30461,-0.62246 -0.84762,-0.9933 -0.543,-0.37083 -1.24493,-0.37083 -0.68869,0 -1.24494,0.35759 -0.543,0.35759 -0.86086,0.98006 -0.30461,0.62246 -0.30461,1.43035 0,0.79464 0.30461,1.44359 0.31786,0.63572 0.86086,1.00655 0.54301,0.35759 1.24494,0.35759 z"
         id="path285" />
      <path
         d="m 130.72257,130.08445 q 0.17217,0 0.27812,0.1192 0.1192,0.10595 0.1192,0.27812 v 9.00592 q 0,0.15893 -0.1192,0.27812 -0.11919,0.1192 -0.27812,0.1192 -0.17217,0 -0.29137,-0.1192 -0.10595,-0.11919 -0.10595,-0.27812 v -1.57604 l 0.22515,-0.18541 q 0,0.37083 -0.19866,0.78139 -0.19866,0.39732 -0.5695,0.74167 -0.35758,0.34434 -0.84761,0.55625 -0.47679,0.2119 -1.03303,0.2119 -0.88735,0 -1.60253,-0.46354 -0.70193,-0.46354 -1.11249,-1.25818 -0.41057,-0.79464 -0.41057,-1.81443 0,-1.00654 0.41057,-1.80118 0.41056,-0.80789 1.11249,-1.25818 0.70193,-0.46354 1.58928,-0.46354 0.54301,0 1.03303,0.19866 0.49003,0.19866 0.86086,0.543 0.38408,0.34435 0.59598,0.79464 0.22515,0.43705 0.22515,0.91384 l -0.27812,-0.19866 v -4.72811 q 0,-0.15893 0.10595,-0.27812 0.1192,-0.1192 0.29137,-0.1192 z m -2.75475,9.19134 q 0.71517,0 1.24493,-0.35759 0.54301,-0.37083 0.84762,-0.9933 0.31785,-0.63571 0.31785,-1.4436 0,-0.79464 -0.31785,-1.41711 -0.30461,-0.63571 -0.84762,-0.9933 -0.543,-0.37083 -1.24493,-0.37083 -0.68869,0 -1.24494,0.37083 -0.543,0.35759 -0.86086,0.9933 -0.30461,0.62247 -0.30461,1.41711 0,0.79464 0.30461,1.43035 0.31786,0.63572 0.86086,1.00655 0.55625,0.35759 1.24494,0.35759 z"
         id="path287" />
      <path
         d="m 135.59637,140.01745 q -0.83437,0 -1.49657,-0.46354 -0.6622,-0.46354 -1.00655,-1.21845 -0.0662,-0.11919 -0.0662,-0.2119 0,-0.17217 0.13244,-0.26488 0.13244,-0.10595 0.26488,-0.10595 0.13244,0 0.21191,0.0662 0.0927,0.0662 0.15892,0.15892 0.25164,0.55625 0.72842,0.9006 0.47679,0.34434 1.07277,0.34434 0.60922,0 1.07276,-0.25164 0.46354,-0.26488 0.71518,-0.72842 0.26488,-0.46354 0.26488,-1.05952 v -6.1717 q 0,-0.15893 0.11919,-0.27812 0.13244,-0.1192 0.30462,-0.1192 0.18541,0 0.29136,0.1192 0.1192,0.11919 0.1192,0.27812 v 6.1717 q 0,0.82113 -0.37083,1.47009 -0.37083,0.63571 -1.01979,1.00654 -0.64896,0.35759 -1.49657,0.35759 z"
         id="path289" />
      <path
         d="m 146.32402,133.11733 q 0.17217,0 0.27812,0.11919 0.1192,0.1192 0.1192,0.29137 v 5.9598 q 0,0.15893 -0.1192,0.27812 -0.1192,0.1192 -0.27812,0.1192 -0.17218,0 -0.29137,-0.1192 -0.10595,-0.11919 -0.10595,-0.27812 v -1.57604 l 0.22514,-0.10595 q 0,0.37083 -0.2119,0.75491 -0.19866,0.38408 -0.55625,0.71518 -0.35759,0.3311 -0.84761,0.543 -0.47679,0.19866 -1.03304,0.19866 -0.90059,0 -1.61576,-0.46354 -0.70194,-0.46354 -1.1125,-1.27142 -0.39732,-0.80789 -0.39732,-1.81443 0,-1.03303 0.41056,-1.81443 0.41057,-0.79464 1.1125,-1.24494 0.70193,-0.45029 1.58928,-0.45029 0.56949,0 1.05952,0.19866 0.50327,0.19866 0.8741,0.543 0.37084,0.34435 0.5695,0.79464 0.2119,0.43705 0.2119,0.91384 l -0.27812,-0.19866 v -1.68199 q 0,-0.17217 0.10595,-0.29137 0.11919,-0.11919 0.29137,-0.11919 z m -2.75476,6.15846 q 0.70194,0 1.24494,-0.35759 0.543,-0.37083 0.84762,-1.00655 0.31785,-0.64895 0.31785,-1.44359 0,-0.7814 -0.31785,-1.40387 -0.30462,-0.62246 -0.84762,-0.9933 -0.543,-0.37083 -1.24494,-0.37083 -0.68868,0 -1.24493,0.35759 -0.54301,0.35759 -0.86086,0.98006 -0.30461,0.62246 -0.30461,1.43035 0,0.79464 0.30461,1.44359 0.31785,0.63572 0.86086,1.00655 0.543,0.35759 1.24493,0.35759 z"
         id="path291" />
      <path
         d="m 154.48233,133.11733 q 0.17218,0 0.27813,0.11919 0.11919,0.1192 0.11919,0.29137 v 5.9598 q 0,0.15893 -0.11919,0.27812 -0.1192,0.1192 -0.27813,0.1192 -0.17217,0 -0.29136,-0.1192 -0.10596,-0.11919 -0.10596,-0.27812 v -1.57604 l 0.22515,-0.10595 q 0,0.37083 -0.2119,0.75491 -0.19866,0.38408 -0.55625,0.71518 -0.35759,0.3311 -0.84762,0.543 -0.47678,0.19866 -1.03303,0.19866 -0.90059,0 -1.61577,-0.46354 -0.70193,-0.46354 -1.11249,-1.27142 -0.39732,-0.80789 -0.39732,-1.81443 0,-1.03303 0.41056,-1.81443 0.41057,-0.79464 1.1125,-1.24494 0.70193,-0.45029 1.58928,-0.45029 0.56949,0 1.05952,0.19866 0.50327,0.19866 0.8741,0.543 0.37083,0.34435 0.56949,0.79464 0.21191,0.43705 0.21191,0.91384 l -0.27813,-0.19866 v -1.68199 q 0,-0.17217 0.10596,-0.29137 0.11919,-0.11919 0.29136,-0.11919 z m -2.75475,6.15846 q 0.70193,0 1.24494,-0.35759 0.543,-0.37083 0.84761,-1.00655 0.31786,-0.64895 0.31786,-1.44359 0,-0.7814 -0.31786,-1.40387 -0.30461,-0.62246 -0.84761,-0.9933 -0.54301,-0.37083 -1.24494,-0.37083 -0.68869,0 -1.24493,0.35759 -0.54301,0.35759 -0.86086,0.98006 -0.30462,0.62246 -0.30462,1.43035 0,0.79464 0.30462,1.44359 0.31785,0.63572 0.86086,1.00655 0.543,0.35759 1.24493,0.35759 z"
         id="path293" />
      <path
         d="m 159.40912,130.13743 q 0.19866,0 0.4238,0.0397 0.2384,0.0397 0.41057,0.14568 0.17217,0.0927 0.17217,0.29137 0,0.14568 -0.10595,0.26488 -0.10595,0.10595 -0.23839,0.10595 -0.13244,0 -0.3311,-0.0662 -0.19866,-0.0795 -0.42381,-0.0795 -0.27813,0 -0.47679,0.13244 -0.19866,0.11919 -0.30461,0.35759 -0.10595,0.22514 -0.10595,0.55624 v 7.60206 q 0,0.15893 -0.1192,0.27812 -0.10595,0.1192 -0.27812,0.1192 -0.17217,0 -0.29137,-0.1192 -0.10595,-0.11919 -0.10595,-0.27812 v -7.60206 q 0,-0.84761 0.49003,-1.29791 0.50327,-0.45029 1.28467,-0.45029 z m 0.50327,3.11234 q 0.15893,0 0.26488,0.10595 0.10595,0.10595 0.10595,0.26488 0,0.15893 -0.10595,0.26488 -0.10595,0.10595 -0.26488,0.10595 h -3.24478 q -0.14569,0 -0.26488,-0.10595 -0.10595,-0.1192 -0.10595,-0.26488 0,-0.17217 0.10595,-0.26488 0.11919,-0.10595 0.26488,-0.10595 z"
         id="path295" />
      <path
         d="m 167.27606,133.11733 q 0.17217,0 0.27812,0.11919 0.1192,0.1192 0.1192,0.29137 v 5.9598 q 0,0.15893 -0.1192,0.27812 -0.11919,0.1192 -0.27812,0.1192 -0.17217,0 -0.29137,-0.1192 -0.10595,-0.11919 -0.10595,-0.27812 v -1.57604 l 0.22515,-0.10595 q 0,0.37083 -0.21191,0.75491 -0.19866,0.38408 -0.55625,0.71518 -0.35758,0.3311 -0.84761,0.543 -0.47679,0.19866 -1.03303,0.19866 -0.9006,0 -1.61577,-0.46354 -0.70193,-0.46354 -1.1125,-1.27142 -0.39732,-0.80789 -0.39732,-1.81443 0,-1.03303 0.41057,-1.81443 0.41056,-0.79464 1.11249,-1.24494 0.70193,-0.45029 1.58928,-0.45029 0.56949,0 1.05952,0.19866 0.50327,0.19866 0.87411,0.543 0.37083,0.34435 0.56949,0.79464 0.2119,0.43705 0.2119,0.91384 l -0.27812,-0.19866 v -1.68199 q 0,-0.17217 0.10595,-0.29137 0.1192,-0.11919 0.29137,-0.11919 z m -2.75475,6.15846 q 0.70193,0 1.24493,-0.35759 0.54301,-0.37083 0.84762,-1.00655 0.31785,-0.64895 0.31785,-1.44359 0,-0.7814 -0.31785,-1.40387 -0.30461,-0.62246 -0.84762,-0.9933 -0.543,-0.37083 -1.24493,-0.37083 -0.68869,0 -1.24494,0.35759 -0.543,0.35759 -0.86086,0.98006 -0.30461,0.62246 -0.30461,1.43035 0,0.79464 0.30461,1.44359 0.31786,0.63572 0.86086,1.00655 0.543,0.35759 1.24494,0.35759 z"
         id="path297" />
      <path
         d="m 170.15002,139.88501 q -0.18542,0 -0.29137,-0.1192 -0.10595,-0.11919 -0.10595,-0.27812 v -5.93331 q 0,-0.15893 0.10595,-0.27813 0.1192,-0.11919 0.29137,-0.11919 0.17217,0 0.27812,0.11919 0.1192,0.1192 0.1192,0.27813 v 1.9866 l -0.19866,0.0397 q 0.0397,-0.46354 0.22515,-0.91384 0.19866,-0.46354 0.52976,-0.84761 0.3311,-0.38408 0.78139,-0.62247 0.46354,-0.23839 1.03304,-0.23839 0.23839,0 0.46354,0.10595 0.22514,0.0927 0.22514,0.31786 0,0.19866 -0.10595,0.30461 -0.10595,0.10595 -0.25163,0.10595 -0.1192,0 -0.26488,-0.0662 -0.13244,-0.0662 -0.35759,-0.0662 -0.37083,0 -0.74167,0.22515 -0.37083,0.2119 -0.67544,0.58273 -0.30461,0.37084 -0.49003,0.83438 -0.17217,0.45029 -0.17217,0.91383 v 3.27127 q 0,0.15893 -0.1192,0.27812 -0.11919,0.1192 -0.27812,0.1192 z"
         id="path299" />
    </g>
  </g>
</svg>
